# Blender v2.66 (sub 6) OBJ File: 'player ship.blend'
# www.blender.org
mtllib baddie2.mtl
o Cube.002_Cube
v 0.097922 -0.066861 0.230934
v 0.097922 -0.033886 0.230934
v 0.150020 -0.026125 -0.090225
v 0.217803 -0.025553 0.099502
v 0.226903 -0.023704 0.219583
v 0.226903 -0.042211 0.219583
v 0.150020 0.006742 -0.090225
v 0.217803 -0.007047 0.099502
v 0.075211 0.010567 0.140393
v 0.106024 -0.026125 -0.118444
v 0.142277 -0.043217 0.123307
v 0.106024 0.046590 -0.118444
v 0.079365 -0.026125 -0.232487
v 0.043673 0.027622 0.114170
v 0.049171 -0.044956 0.136732
v 0.054977 0.046590 -0.123027
v 0.054977 -0.026125 -0.123027
v 0.094363 -0.077084 0.321376
v 0.190674 -0.062073 0.335127
v 0.094363 -0.062090 0.321376
v 0.190674 -0.047024 0.335127
v 0.076783 -0.084252 0.404380
v 0.076938 -0.068306 0.404154
v 0.123051 -0.066330 0.422787
v 0.123308 -0.082064 0.422413
v 0.033740 -0.023449 0.234697
v 0.033740 -0.060512 0.234697
v 0.199834 0.006657 -0.024342
v 0.199834 -0.011849 -0.024342
v 0.044408 0.046590 -0.232487
v 0.044408 -0.026125 -0.232487
v 0.081687 0.046590 -0.011789
v 0.081687 -0.027044 -0.011789
v 0.079365 0.046590 -0.232487
v 0.142277 0.029750 0.123307
v 0.088569 -0.089221 0.430100
v 0.088569 -0.061758 0.430100
v 0.123361 0.006742 -0.207621
v 0.123361 -0.026125 -0.207621
v 0.142518 -0.036822 0.328251
v 0.142518 -0.073617 0.328251
v 0.147485 0.046590 -0.020594
v 0.147485 -0.027044 -0.020594
v 0.162413 -0.000514 0.225259
v 0.162413 -0.060285 0.225259
v 0.048856 -0.054202 0.183864
v 0.041701 0.007964 0.180766
v -0.097922 -0.066861 0.230934
v -0.097922 -0.033886 0.230934
v -0.150020 -0.026125 -0.090225
v -0.217803 -0.025553 0.099502
v -0.226903 -0.023704 0.219583
v -0.226903 -0.042211 0.219583
v -0.150020 0.006742 -0.090225
v -0.217803 -0.007047 0.099502
v 0.000000 0.046590 -0.123027
v 0.000000 -0.026125 -0.123027
v 0.000000 0.038493 0.128987
v 0.000000 -0.056899 0.128987
v -0.075211 0.010567 0.140393
v -0.106024 -0.026125 -0.118444
v -0.142277 -0.043217 0.123307
v -0.106024 0.046590 -0.118444
v -0.079365 -0.026125 -0.232487
v -0.043673 0.027622 0.114170
v -0.049171 -0.044956 0.136732
v -0.054977 0.046590 -0.123027
v -0.054977 -0.026125 -0.123027
v -0.094363 -0.077084 0.321376
v -0.190674 -0.062073 0.335127
v -0.094363 -0.062090 0.321376
v -0.190674 -0.047024 0.335127
v -0.076783 -0.084252 0.404380
v -0.076938 -0.068306 0.404154
v -0.123051 -0.066330 0.422787
v -0.123308 -0.082064 0.422413
v -0.033740 -0.023449 0.234697
v -0.033740 -0.060512 0.234697
v -0.199834 0.006657 -0.024342
v -0.199834 -0.011849 -0.024342
v 0.000000 -0.033563 -0.015273
v 0.000000 0.046590 -0.015273
v -0.044408 0.046590 -0.232487
v -0.044408 -0.026125 -0.232487
v -0.081687 0.046590 -0.011789
v -0.081687 -0.027044 -0.011789
v -0.079365 0.046590 -0.232487
v -0.142277 0.029750 0.123307
v -0.088569 -0.089221 0.430100
v -0.088569 -0.061758 0.430100
v 0.000000 -0.018177 0.252040
v 0.000000 -0.055206 0.252040
v 0.000000 -0.026125 -0.232487
v 0.000000 0.046590 -0.232487
v -0.123361 0.006742 -0.207621
v -0.123361 -0.026125 -0.207621
v -0.142518 -0.036822 0.328251
v -0.142518 -0.073617 0.328251
v -0.147485 0.046590 -0.020594
v -0.147485 -0.027044 -0.020594
v -0.162413 -0.000514 0.225259
v -0.162413 -0.060285 0.225259
v -0.048856 -0.054202 0.183864
v 0.000000 0.019852 0.188794
v -0.041701 0.007964 0.180766
v 0.000000 -0.066631 0.183114
vt 0.221593 0.916610
vt 0.259975 0.902401
vt 0.281562 0.925805
vt 0.222500 0.975572
vt 0.437212 0.187072
vt 0.378852 0.174192
vt 0.432581 0.089215
vt 0.458507 0.091089
vt 0.217190 0.244390
vt 0.125883 0.407544
vt 0.098676 0.403751
vt 0.195751 0.228972
vt 0.123595 0.580251
vt 0.097929 0.585995
vt 0.354938 0.500814
vt 0.425331 0.474993
vt 0.410759 0.556915
vt 0.628228 0.622429
vt 0.699158 0.620883
vt 0.676908 0.694304
vt 0.628228 0.720119
vt 0.302445 0.770443
vt 0.325144 0.779034
vt 0.384369 0.303012
vt 0.494332 0.201639
vt 0.494332 0.320263
vt 0.296673 0.169076
vt 0.267584 0.138744
vt 0.369066 0.049372
vt 0.386054 0.077547
vt 0.124168 0.745013
vt 0.144905 0.737681
vt 0.181247 0.896518
vt 0.156649 0.918090
vt 0.222500 0.452824
vt 0.313929 0.629533
vt 0.222500 0.590071
vt 0.831240 0.811662
vt 0.890556 0.802222
vt 0.861715 0.928560
vt 0.831240 0.959012
vt 0.494332 0.489201
vt 0.222500 0.744576
vt 0.628228 0.546025
vt 0.698834 0.551100
vt 0.349326 0.652911
vt 0.702686 0.191167
vt 0.628228 0.192448
vt 0.628228 0.039929
vt 0.688381 0.041426
vt 0.831240 0.671328
vt 0.920075 0.661281
vt 0.494332 0.092219
vt 0.453968 0.026783
vt 0.494332 0.026126
vt 0.628228 0.342864
vt 0.741512 0.344473
vt 0.771742 0.195487
vt 0.831240 0.330174
vt 0.497021 0.759283
vt 0.577902 0.758868
vt 0.577902 0.873483
vt 0.497021 0.873483
vt 0.577902 0.954677
vt 0.463651 0.940045
vt 0.385906 0.828944
vt 0.767701 0.821171
vt 0.797632 0.935898
vt 0.751215 0.685352
vt 0.296532 0.272664
vt 0.418821 0.030160
vt 0.831240 0.230071
vt 0.831240 0.535173
vt 0.909961 0.322962
vt 0.932649 0.505096
vt 0.735013 0.042067
vt 0.793653 0.075539
vt 0.497021 0.622755
vt 0.577902 0.635859
vt 0.362088 0.720339
vn -0.910866 0.005405 0.412668
vn 0.000000 1.000000 -0.000000
vn 0.989637 0.000000 -0.143589
vn 0.997141 0.000000 -0.075566
vn -0.556439 0.207927 0.804451
vn 0.096686 -0.993814 0.054647
vn -0.978477 0.003402 -0.206330
vn 0.975173 0.000000 -0.221445
vn 0.791801 -0.000813 0.610778
vn -0.279222 0.872561 0.400840
vn 0.219474 -0.974686 -0.042655
vn 0.095940 0.989002 0.112559
vn -0.457961 0.888559 -0.027120
vn 0.251913 -0.951327 -0.177528
vn 0.797658 0.000000 -0.603110
vn 0.954194 0.000000 0.299189
vn -0.999226 0.000000 -0.039331
vn 0.000000 -1.000000 0.000000
vn -0.451020 0.861650 0.232682
vn 0.254266 -0.963729 -0.081083
vn 0.000000 0.000000 -1.000000
vn 0.148897 -0.981333 -0.121717
vn -0.000314 -0.999962 -0.008688
vn 0.048722 -0.997842 -0.044022
vn 0.347670 0.796064 0.495386
vn 0.457166 0.000000 0.889381
vn 0.212045 -0.007212 0.977233
vn 0.414166 0.900034 0.135670
vn 0.967462 0.077276 0.240927
vn 0.034423 -0.993439 -0.109057
vn 0.089423 -0.989933 -0.109705
vn 0.168100 0.930620 0.325098
vn 0.524518 0.848368 0.071782
vn 0.266464 0.910292 0.316804
vn 0.492042 0.000000 -0.870572
vn 0.008271 -0.999883 -0.012895
vn 0.223067 -0.967561 -0.118602
vn -0.005428 -0.993180 -0.116468
vn 0.015627 0.993035 0.116775
vn 0.647508 0.671335 -0.360615
vn 0.714870 0.679588 -0.164686
vn 0.209064 -0.962351 -0.173704
vn -0.873475 0.239478 0.423899
vn 0.026914 -0.978623 -0.203893
vn -0.073106 0.793581 0.604057
vn -0.034221 0.989740 0.138720
vn 0.316462 0.906468 0.279585
vn 0.993718 0.102055 0.045923
vn 0.278580 -0.960410 -0.002534
vn 0.910866 0.005405 0.412668
vn -0.989637 0.000000 -0.143589
vn -0.997141 0.000000 -0.075566
vn 0.556439 0.207927 0.804451
vn -0.096686 -0.993814 0.054647
vn 0.978477 0.003402 -0.206330
vn -0.975173 0.000000 -0.221445
vn -0.791801 -0.000813 0.610778
vn 0.279222 0.872561 0.400840
vn -0.219474 -0.974686 -0.042655
vn -0.095940 0.989002 0.112559
vn 0.457961 0.888559 -0.027120
vn -0.251913 -0.951327 -0.177528
vn -0.797658 0.000000 -0.603110
vn -0.954194 0.000000 0.299189
vn 0.999226 0.000000 -0.039331
vn 0.451020 0.861650 0.232682
vn -0.254266 -0.963729 -0.081083
vn -0.148897 -0.981333 -0.121717
vn 0.000314 -0.999962 -0.008688
vn -0.048722 -0.997842 -0.044022
vn -0.347670 0.796064 0.495386
vn -0.457166 0.000000 0.889381
vn -0.212045 -0.007212 0.977233
vn -0.414166 0.900034 0.135670
vn -0.967462 0.077276 0.240927
vn -0.034423 -0.993439 -0.109057
vn -0.089423 -0.989933 -0.109705
vn -0.168100 0.930620 0.325098
vn -0.524518 0.848368 0.071782
vn -0.266464 0.910292 0.316804
vn -0.492042 0.000000 -0.870572
vn -0.008271 -0.999883 -0.012895
vn -0.223067 -0.967561 -0.118602
vn 0.005428 -0.993180 -0.116468
vn -0.015627 0.993035 0.116775
vn -0.647508 0.671335 -0.360615
vn -0.714870 0.679588 -0.164686
vn -0.209064 -0.962351 -0.173704
vn 0.873475 0.239478 0.423899
vn -0.026914 -0.978623 -0.203893
vn 0.073106 0.793581 0.604058
vn 0.034221 0.989740 0.138720
vn -0.316462 0.906468 0.279585
vn -0.993718 0.102055 0.045923
vn -0.278580 -0.960410 -0.002534
g Cube.002_Cube_Material.003
usemtl Material.003
s off
f 37/1/1 23/2/1 22/3/1 36/4/1
f 16/5/2 12/6/2 34/7/2 30/8/2
f 28/9/3 8/10/3 4/11/3 29/12/3
f 4/11/4 8/10/4 5/13/4 6/14/4
f 9/15/5 14/16/5 15/17/5
f 106/18/6 46/19/6 27/20/6 92/21/6
f 20/22/7 18/23/7 22/3/7 23/2/7
f 32/24/2 16/5/2 56/25/2 82/26/2
f 7/27/8 3/28/8 39/29/8 38/30/8
f 19/31/9 21/32/9 24/33/9 25/34/9
f 35/35/10 9/15/10 2/36/10 44/37/10
f 41/38/11 19/39/11 25/40/11 36/41/11
f 14/16/12 32/24/12 82/26/12 58/42/12
f 40/43/13 20/22/13 23/2/13 37/1/13
f 59/44/14 15/45/14 46/19/14 106/18/14
f 7/27/15 28/9/15 29/12/15 3/28/15
f 6/14/16 5/13/16 21/32/16 19/31/16
f 2/36/17 1/46/17 18/23/17 20/22/17
f 17/47/18 57/48/18 93/49/18 31/50/18
f 44/37/19 2/36/19 20/22/19 40/43/19
f 45/51/20 6/52/20 19/39/20 41/38/20
f 94/53/21 30/8/21 31/54/21 93/55/21
f 56/25/2 16/5/2 30/8/2 94/53/2
f 59/44/22 81/56/22 33/57/22 15/45/22
f 33/57/23 17/47/23 10/58/23 43/59/23
f 81/56/24 57/48/24 17/47/24 33/57/24
f 47/60/25 104/61/25 91/62/25 26/63/25
f 26/63/26 91/62/26 92/64/26 27/65/26
f 24/33/27 37/1/27 36/4/27 25/34/27
f 8/10/28 35/35/28 44/37/28 5/13/28
f 46/66/29 47/60/29 26/63/29 27/65/29
f 18/67/30 41/38/30 36/41/30 22/68/30
f 1/69/31 45/51/31 41/38/31 18/67/31
f 21/32/32 40/43/32 37/1/32 24/33/32
f 8/10/33 28/9/33 42/70/33 35/35/33
f 5/13/34 44/37/34 40/43/34 21/32/34
f 34/7/35 38/30/35 39/29/35 13/71/35
f 43/59/36 10/58/36 3/72/36
f 11/73/37 43/59/37 29/74/37 4/75/37
f 30/8/21 34/7/21 13/71/21 31/54/21
f 10/58/18 17/47/18 31/50/18 13/76/18
f 15/45/38 33/57/38 43/59/38 11/73/38
f 35/35/39 42/70/39 32/24/39
f 42/70/2 12/6/2 16/5/2 32/24/2
f 28/9/40 7/27/40 12/6/40 42/70/40
f 12/6/41 7/27/41 38/30/41 34/7/41
f 11/73/42 4/75/42 6/52/42 45/51/42
f 3/72/18 10/58/18 13/76/18 39/77/18
f 2/36/43 9/15/43 15/17/43 1/46/43
f 15/45/44 11/73/44 45/51/44 1/69/44
f 14/16/45 9/15/45 35/35/45
f 32/24/46 14/16/46 35/35/46
f 14/78/47 58/79/47 104/61/47 47/60/47
f 15/80/48 14/78/48 47/60/48 46/66/48
f 29/74/49 43/59/49 3/72/49
f 90/1/50 89/4/50 73/3/50 74/2/50
f 67/5/2 83/8/2 87/7/2 63/6/2
f 79/9/51 80/12/51 51/11/51 55/10/51
f 51/11/52 53/14/52 52/13/52 55/10/52
f 60/15/53 66/17/53 65/16/53
f 106/18/54 92/21/54 78/20/54 103/19/54
f 71/22/55 74/2/55 73/3/55 69/23/55
f 85/24/2 82/26/2 56/25/2 67/5/2
f 54/27/56 95/30/56 96/29/56 50/28/56
f 70/31/57 76/34/57 75/33/57 72/32/57
f 88/35/58 101/37/58 49/36/58 60/15/58
f 98/38/59 89/41/59 76/40/59 70/39/59
f 65/16/60 58/42/60 82/26/60 85/24/60
f 97/43/61 90/1/61 74/2/61 71/22/61
f 59/44/62 106/18/62 103/19/62 66/45/62
f 54/27/63 50/28/63 80/12/63 79/9/63
f 53/14/64 70/31/64 72/32/64 52/13/64
f 49/36/65 71/22/65 69/23/65 48/46/65
f 68/47/18 84/50/18 93/49/18 57/48/18
f 101/37/66 97/43/66 71/22/66 49/36/66
f 102/51/67 98/38/67 70/39/67 53/52/67
f 94/53/21 93/55/21 84/54/21 83/8/21
f 56/25/2 94/53/2 83/8/2 67/5/2
f 59/44/68 66/45/68 86/57/68 81/56/68
f 86/57/69 100/59/69 61/58/69 68/47/69
f 81/56/70 86/57/70 68/47/70 57/48/70
f 105/60/71 77/63/71 91/62/71 104/61/71
f 77/63/72 78/65/72 92/64/72 91/62/72
f 75/33/73 76/34/73 89/4/73 90/1/73
f 55/10/74 52/13/74 101/37/74 88/35/74
f 103/66/75 78/65/75 77/63/75 105/60/75
f 69/67/76 73/68/76 89/41/76 98/38/76
f 48/69/77 69/67/77 98/38/77 102/51/77
f 72/32/78 75/33/78 90/1/78 97/43/78
f 55/10/79 88/35/79 99/70/79 79/9/79
f 52/13/80 72/32/80 97/43/80 101/37/80
f 87/7/81 64/71/81 96/29/81 95/30/81
f 100/59/82 50/72/82 61/58/82
f 62/73/83 51/75/83 80/74/83 100/59/83
f 83/8/21 84/54/21 64/71/21 87/7/21
f 61/58/18 64/76/18 84/50/18 68/47/18
f 66/45/84 62/73/84 100/59/84 86/57/84
f 88/35/85 85/24/85 99/70/85
f 99/70/2 85/24/2 67/5/2 63/6/2
f 79/9/86 99/70/86 63/6/86 54/27/86
f 63/6/87 87/7/87 95/30/87 54/27/87
f 62/73/88 102/51/88 53/52/88 51/75/88
f 50/72/18 96/77/18 64/76/18 61/58/18
f 49/36/89 48/46/89 66/17/89 60/15/89
f 66/45/90 48/69/90 102/51/90 62/73/90
f 65/16/91 88/35/91 60/15/91
f 85/24/92 88/35/92 65/16/92
f 65/78/93 105/60/93 104/61/93 58/79/93
f 66/80/94 103/66/94 105/60/94 65/78/94
f 80/74/95 50/72/95 100/59/95
